<?xml version="1.0" encoding="UTF-8" standalone="no"?>
<svg
   xmlns:lucid="lucid"
   xmlns:dc="http://purl.org/dc/elements/1.1/"
   xmlns:cc="http://creativecommons.org/ns#"
   xmlns:rdf="http://www.w3.org/1999/02/22-rdf-syntax-ns#"
   xmlns:svg="http://www.w3.org/2000/svg"
   xmlns="http://www.w3.org/2000/svg"
   xmlns:xlink="http://www.w3.org/1999/xlink"
   xmlns:sodipodi="http://sodipodi.sourceforge.net/DTD/sodipodi-0.dtd"
   xmlns:inkscape="http://www.inkscape.org/namespaces/inkscape"
   width="1715.52"
   height="999.31"
   version="1.1"
   id="svg1997"
   sodipodi:docname="Guest House Venue.svg"
   inkscape:version="0.92.3 (2405546, 2018-03-11)">
  <metadata
     id="metadata2003">
    <rdf:RDF>
      <cc:Work
         rdf:about="">
        <dc:format>image/svg+xml</dc:format>
        <dc:type
           rdf:resource="http://purl.org/dc/dcmitype/StillImage" />
        <dc:title></dc:title>
      </cc:Work>
    </rdf:RDF>
  </metadata>
  <defs
     id="defs2001" />
  <sodipodi:namedview
     pagecolor="#ffffff"
     bordercolor="#666666"
     borderopacity="1"
     objecttolerance="10"
     gridtolerance="10"
     guidetolerance="10"
     inkscape:pageopacity="0"
     inkscape:pageshadow="2"
     inkscape:window-width="2560"
     inkscape:window-height="1537"
     id="namedview1999"
     showgrid="false"
     inkscape:zoom="1.2124603"
     inkscape:cx="857.76001"
     inkscape:cy="499.655"
     inkscape:window-x="1592"
     inkscape:window-y="-8"
     inkscape:window-maximized="1"
     inkscape:current-layer="svg1997" />
  <g
     transform="translate(-23.99999997434969 -170)"
     lucid:page-tab-id="0_0"
     id="g1995">
    <path
       d="M0 0h1760v1360H0z"
       fill="#fff"
       id="path1410" />
    <g
       stroke="#000"
       stroke-width="2"
       fill="#bbb"
       id="g1418">
      <path
         d="M1286.17 506.54c2.75 18.05 2.75 18.05 0 36.05-16 2.6-16 2.6-33.45 2.6-1.6-20.6-1.6-20.6 0-41.26 17.45 0 17.45 0 33.45 2.6z"
         id="path1412" />
      <path
         d="M1297.82 523.94v1.25c0 .7-.5 1.2-1.15 1.2h-8.85c-.65 0-1.15-.5-1.15-1.2v-1.26c0-.65.5-1.2 1.15-1.2h8.85c.65 0 1.15.55 1.15 1.2zM1296.22 507.7l.1 1.3c.05.64-.4 1.24-1.05 1.3l-8.8.8c-.6.04-1.15-.46-1.2-1.1l-.15-1.3c-.05-.66.4-1.2 1.05-1.26l8.8-.8c.65-.05 1.2.4 1.25 1.05zM1297.27 515.84l.05 1.25c.05.64-.45 1.2-1.1 1.24l-8.8.4c-.65.05-1.2-.5-1.2-1.15l-.1-1.3c0-.66.5-1.2 1.15-1.2l8.8-.4c.65-.06 1.2.44 1.2 1.14zM1297.32 532.04l-.05 1.3c0 .65-.55 1.15-1.2 1.1l-8.8-.4c-.65 0-1.15-.55-1.15-1.2l.1-1.3c0-.65.55-1.15 1.2-1.15l8.8.4c.65.04 1.15.6 1.1 1.24zM1296.32 540.14l-.1 1.3c-.05.65-.6 1.1-1.25 1.05l-8.8-.76c-.65-.1-1.1-.65-1.05-1.3l.15-1.3c.05-.65.6-1.15 1.2-1.1l8.8.8c.65.05 1.1.65 1.05 1.3z"
         id="path1414" />
      <path
         d="M1299.37 500.34c2.6 24.25 2.6 24.25 0 48.45-1.45 1.74-4.7-.36-6.1-2.06 2.85-24.25 2.85-20.1 0-44.35 1.4-1.7 4.65-3.76 6.1-2.06z"
         id="path1416" />
    </g>
    <g
       stroke="#000"
       stroke-width="2"
       fill="#bbb"
       id="g1426">
      <path
         d="M1286.17 436.08c2.75 18.05 2.75 18.05 0 36.05-16 2.6-16 2.6-33.45 2.6-1.6-20.6-1.6-20.6 0-41.25 17.45 0 17.45 0 33.45 2.6z"
         id="path1420" />
      <path
         d="M1297.82 453.48v1.25c0 .7-.5 1.2-1.15 1.2h-8.85c-.65 0-1.15-.5-1.15-1.2v-1.25c0-.65.5-1.2 1.15-1.2h8.85c.65 0 1.15.55 1.15 1.2zM1296.22 437.23l.1 1.3c.05.65-.4 1.25-1.05 1.3l-8.8.8c-.6.05-1.15-.45-1.2-1.1l-.15-1.3c-.05-.65.4-1.2 1.05-1.25l8.8-.8c.65-.05 1.2.4 1.25 1.05zM1297.27 445.38l.05 1.25c.05.65-.45 1.2-1.1 1.25l-8.8.4c-.65.05-1.2-.5-1.2-1.15l-.1-1.3c0-.65.5-1.2 1.15-1.2l8.8-.4c.65-.05 1.2.45 1.2 1.15zM1297.32 461.58l-.05 1.3c0 .65-.55 1.15-1.2 1.1l-8.8-.4c-.65 0-1.15-.55-1.15-1.2l.1-1.3c0-.65.55-1.15 1.2-1.15l8.8.4c.65.05 1.15.6 1.1 1.25zM1296.32 469.68l-.1 1.3c-.05.65-.6 1.1-1.25 1.05l-8.8-.75c-.65-.1-1.1-.65-1.05-1.3l.15-1.3c.05-.65.6-1.15 1.2-1.1l8.8.8c.65.05 1.1.65 1.05 1.3z"
         id="path1422" />
      <path
         d="M1299.37 429.88c2.6 24.25 2.6 24.25 0 48.45-1.45 1.75-4.7-.35-6.1-2.05 2.85-24.25 2.85-20.1 0-44.35 1.4-1.7 4.65-3.75 6.1-2.05z"
         id="path1424" />
    </g>
    <g
       stroke="#000"
       stroke-width="2"
       fill="#bbb"
       id="g1434">
      <path
         d="M1119.8 500.04c2.76 18.05 2.76 18.05 0 36.05-16 2.6-16 2.6-33.44 2.6-1.6-20.6-1.6-20.6 0-41.26 17.45 0 17.45 0 33.45 2.6z"
         id="path1428" />
      <path
         d="M1131.46 517.44v1.25c0 .7-.5 1.2-1.15 1.2h-8.84c-.65 0-1.15-.5-1.15-1.2v-1.26c0-.65.5-1.2 1.16-1.2h8.85c.66 0 1.16.55 1.16 1.2zM1129.86 501.2l.1 1.3c.05.64-.4 1.24-1.05 1.3l-8.8.8c-.6.04-1.14-.46-1.2-1.1l-.14-1.3c-.05-.66.4-1.2 1.05-1.26l8.8-.8c.66-.05 1.2.4 1.26 1.05zM1130.9 509.34l.06 1.25c.05.64-.45 1.2-1.1 1.24l-8.8.4c-.65.05-1.2-.5-1.2-1.15l-.1-1.3c0-.66.5-1.2 1.15-1.2l8.8-.4c.66-.06 1.2.44 1.2 1.14zM1130.96 525.54l-.05 1.3c0 .65-.54 1.15-1.2 1.1l-8.8-.4c-.64 0-1.14-.55-1.14-1.2l.1-1.3c0-.65.55-1.15 1.2-1.15l8.8.4c.65.04 1.15.6 1.1 1.24zM1129.96 533.64l-.1 1.3c-.05.65-.6 1.1-1.25 1.05l-8.8-.76c-.64-.1-1.1-.65-1.04-1.3l.15-1.3c.06-.65.6-1.15 1.2-1.1l8.8.8c.66.05 1.1.65 1.06 1.3z"
         id="path1430" />
      <path
         d="M1133 493.84c2.6 24.25 2.6 24.25 0 48.45-1.44 1.74-4.7-.36-6.1-2.06 2.86-24.25 2.86-20.1 0-44.35 1.4-1.7 4.66-3.76 6.1-2.06z"
         id="path1432" />
    </g>
    <g
       stroke="#000"
       stroke-width="2"
       fill="#bbb"
       id="g1442">
      <path
         d="M1119.8 429.58c2.76 18.05 2.76 18.05 0 36.05-16 2.6-16 2.6-33.44 2.6-1.6-20.6-1.6-20.6 0-41.25 17.45 0 17.45 0 33.45 2.6z"
         id="path1436" />
      <path
         d="M1131.46 446.98v1.25c0 .7-.5 1.2-1.15 1.2h-8.84c-.65 0-1.15-.5-1.15-1.2v-1.25c0-.65.5-1.2 1.16-1.2h8.85c.66 0 1.16.55 1.16 1.2zM1129.86 430.73l.1 1.3c.05.65-.4 1.25-1.05 1.3l-8.8.8c-.6.05-1.14-.45-1.2-1.1l-.14-1.3c-.05-.65.4-1.2 1.05-1.25l8.8-.8c.66-.05 1.2.4 1.26 1.05zM1130.9 438.88l.06 1.25c.05.65-.45 1.2-1.1 1.25l-8.8.4c-.65.05-1.2-.5-1.2-1.15l-.1-1.3c0-.65.5-1.2 1.15-1.2l8.8-.4c.66-.05 1.2.45 1.2 1.15zM1130.96 455.08l-.05 1.3c0 .65-.54 1.15-1.2 1.1l-8.8-.4c-.64 0-1.14-.55-1.14-1.2l.1-1.3c0-.65.55-1.15 1.2-1.15l8.8.4c.65.05 1.15.6 1.1 1.25zM1129.96 463.18l-.1 1.3c-.05.65-.6 1.1-1.25 1.05l-8.8-.75c-.64-.1-1.1-.65-1.04-1.3l.15-1.3c.06-.65.6-1.15 1.2-1.1l8.8.8c.66.05 1.1.65 1.06 1.3z"
         id="path1438" />
      <path
         d="M1133 423.38c2.6 24.25 2.6 24.25 0 48.45-1.44 1.75-4.7-.35-6.1-2.05 2.86-24.25 2.86-20.1 0-44.35 1.4-1.7 4.66-3.75 6.1-2.05z"
         id="path1440" />
    </g>
    <g
       stroke="#000"
       stroke-width="2"
       fill="#bbb"
       id="g1450">
      <path
         d="M984.53 497.25c2.75 18.05 2.75 18.05 0 36.05-16 2.6-16 2.6-33.45 2.6-1.6-20.6-1.6-20.6 0-41.25 17.45 0 17.45 0 33.45 2.6z"
         id="path1444" />
      <path
         d="M996.18 514.65v1.25c0 .7-.5 1.2-1.15 1.2h-8.85c-.65 0-1.15-.5-1.15-1.2v-1.25c0-.65.5-1.2 1.15-1.2h8.85c.65 0 1.15.55 1.15 1.2zM994.58 498.4l.1 1.3c.05.65-.4 1.25-1.05 1.3l-8.8.8c-.6.05-1.15-.45-1.2-1.1l-.15-1.3c-.05-.65.4-1.2 1.05-1.25l8.8-.8c.65-.05 1.2.4 1.25 1.05zM995.63 506.55l.05 1.25c.05.65-.45 1.2-1.1 1.25l-8.8.4c-.65.05-1.2-.5-1.2-1.15l-.1-1.3c0-.65.5-1.2 1.15-1.2l8.8-.4c.65-.05 1.2.45 1.2 1.15zM995.68 522.75l-.05 1.3c0 .65-.55 1.15-1.2 1.1l-8.8-.4c-.65 0-1.15-.55-1.15-1.2l.1-1.3c0-.65.55-1.15 1.2-1.15l8.8.4c.65.05 1.15.6 1.1 1.25zM994.68 530.85l-.1 1.3c-.05.65-.6 1.1-1.25 1.05l-8.8-.75c-.65-.1-1.1-.65-1.05-1.3l.15-1.3c.05-.65.6-1.15 1.2-1.1l8.8.8c.65.05 1.1.65 1.05 1.3z"
         id="path1446" />
      <path
         d="M997.73 491.05c2.6 24.25 2.6 24.25 0 48.45-1.45 1.75-4.7-.35-6.1-2.05 2.85-24.25 2.85-20.1 0-44.35 1.4-1.7 4.65-3.75 6.1-2.05z"
         id="path1448" />
    </g>
    <g
       stroke="#000"
       stroke-width="2"
       fill="#bbb"
       id="g1458">
      <path
         d="M984.53 426.8c2.75 18.04 2.75 18.04 0 36.04-16 2.6-16 2.6-33.45 2.6-1.6-20.6-1.6-20.6 0-41.25 17.45 0 17.45 0 33.45 2.6z"
         id="path1452" />
      <path
         d="M996.18 444.2v1.24c0 .7-.5 1.2-1.15 1.2h-8.85c-.65 0-1.15-.5-1.15-1.2v-1.25c0-.66.5-1.2 1.15-1.2h8.85c.65 0 1.15.54 1.15 1.2zM994.58 427.94l.1 1.3c.05.65-.4 1.25-1.05 1.3l-8.8.8c-.6.05-1.15-.45-1.2-1.1l-.15-1.3c-.05-.65.4-1.2 1.05-1.25l8.8-.8c.65-.06 1.2.4 1.25 1.04zM995.63 436.1l.05 1.24c.05.65-.45 1.2-1.1 1.25l-8.8.4c-.65.04-1.2-.5-1.2-1.16l-.1-1.3c0-.65.5-1.2 1.15-1.2l8.8-.4c.65-.05 1.2.45 1.2 1.15zM995.68 452.3l-.05 1.3c0 .64-.55 1.14-1.2 1.1l-8.8-.4c-.65 0-1.15-.56-1.15-1.2l.1-1.3c0-.66.55-1.16 1.2-1.16l8.8.4c.65.05 1.15.6 1.1 1.25zM994.68 460.4l-.1 1.3c-.05.64-.6 1.1-1.25 1.04l-8.8-.75c-.65-.1-1.1-.66-1.05-1.3l.15-1.3c.05-.66.6-1.16 1.2-1.1l8.8.8c.65.04 1.1.64 1.05 1.3z"
         id="path1454" />
      <path
         d="M997.73 420.6c2.6 24.24 2.6 24.24 0 48.44-1.45 1.75-4.7-.35-6.1-2.05 2.85-24.26 2.85-20.1 0-44.36 1.4-1.7 4.65-3.75 6.1-2.05z"
         id="path1456" />
    </g>
    <path
       d="M1664.47 407.48h-138.42v-12.5h138.42zM645.47 412.87l-93.02 18.4-2.42-12.26 93-18.4z"
       fill="#fff"
       fill-opacity="0"
       id="path1460" />
    <path
       d="M606.05 645.5h41.36c1.44 0 2.6 1.3 2.6 3V689c0 1.6-1.16 2.93-2.6 2.93h-41.35c-1.5 0-2.64-1.32-2.64-2.94v-40.5c0-1.7 1.16-3 2.65-3z"
       stroke="#000"
       stroke-width="2"
       fill="#bbb"
       id="path1462" />
    <path
       d="M650.1 638.7v41.83h2.86c.66 0 1.2-.66 1.2-1.44v-38.95c0-.84-.54-1.44-1.2-1.44h-2.86z"
       stroke="#000"
       stroke-width="2"
       id="path1464" />
    <path
       d="M606 632h41.4c1.44 0 2.6 1.3 2.6 2.93v7.5c0 1.68-1.16 3-2.6 3H606c-1.44 0-2.6-1.32-2.6-3v-7.5c0-1.62 1.16-2.94 2.6-2.94z"
       stroke="#000"
       stroke-width="2"
       fill="#bbb"
       id="path1466" />
    <path
       d="M603.3 638.7v41.83h-2.8c-.72 0-1.27-.66-1.27-1.44v-38.95c0-.84.55-1.44 1.26-1.44h2.8z"
       stroke="#000"
       stroke-width="2"
       id="path1468" />
    <g
       stroke="#000"
       stroke-width="2"
       id="g1480">
      <path
         d="M1393.64 747l-2.56 4.56-10.8-6.44c-3.07-1.75-.45-6.37 2.55-4.62l10.8 6.5zM1393.64 775.87l-2.56-4.56-10.8 6.45c-3.07 1.75-.45 6.37 2.55 4.62l10.8-6.5z"
         id="path1470" />
      <path
         d="M1407.58 790.3c15.38 0 27.88-12.93 27.88-28.87 0-15.93-12.5-28.87-27.88-28.87-15.37 0-27.87 12.94-27.87 28.87 0 15.94 12.5 28.88 27.88 28.88z"
         fill="#ccc"
         id="path1472" />
      <path
         d="M1437.7 732.56c5.13 28.87 5.2 28.87 0 57.75-5.56 4.76-11.8 1.32-13.87-2.93-.8-1.75 3.2-12.37 3.2-25.94.05-13.56-4-24.25-3.2-26 2-4.25 8.3-7.68 13.88-2.87z"
         fill="#666"
         id="path1474" />
      <path
         d="M1436.33 732.56c5.13 28.87 5.2 28.87 0 57.75-5.56 4.76-11.8 1.32-13.87-2.93-.82-1.75 3.18-12.37 3.18-25.94 0-13.56-4-24.25-3.18-26 2-4.25 8.3-7.68 13.87-2.87z"
         fill="#ccc"
         id="path1476" />
      <path
         d="M1420.96 730.62v6.25h-25.5c-1.82-4.3-1.82-4.3 0-6.25h25.5zM1420.96 786v6.25h-25.5c-1.82-1.94-1.82-1.94 0-6.25h25.5z"
         fill="#666"
         id="path1478" />
    </g>
    <g
       stroke="#000"
       fill="#999"
       id="g1486">
      <path
         d="M1187.78 938.53H949.93v-44h237.85z"
         stroke-width="2"
         id="path1482" />
      <path
         d="M1181.83 892.7H1074.8m107.03-1.84H1074.8M1062.9 892.7H955.9m107.03-1.84H955.9"
         id="path1484" />
    </g>
    <path
       d="M1351 600.98h239.3v60H1351z"
       stroke="#000"
       stroke-width="2"
       fill="#eee"
       id="path1488" />
    <path
       d="M358.4 748.16h58.9v90.57h-58.9zM563.36 704.62h134v126h-134z"
       stroke="#000"
       stroke-width="2"
       fill="#ddd"
       id="path1490" />
    <path
       d="M916.14 416.98h58.9v149.07h-58.9z"
       stroke="#000"
       stroke-width="2"
       id="path1492" />
    <path
       d="M272.07 853.03c0 25.16-20.06 45.56-44.8 45.56-24.75 0-44.8-20.4-44.8-45.57 0-25.16 20.05-45.56 44.8-45.56 24.74 0 44.8 20.4 44.8 45.56"
       stroke="#000"
       stroke-width="2"
       fill="#ddd"
       id="path1494" />
    <path
       d="M126.75 565.65h301.33v372H126.75"
       stroke="#000"
       stroke-width="5"
       fill="none"
       id="path1496" />
    <path
       d="M233 195c0-2.76 2.25-5 5-5h838c2.78 0 5 2.24 5 5v50c0 2.76-2.22 5-5 5H238c-2.75 0-5-2.24-5-5z"
       fill="none"
       id="path1498" />
    <use
       xlink:href="#a"
       transform="matrix(1,0,0,1,233.01406542321138,190) translate(0 37.111111111111114)"
       id="use1500" />
    <use
       xlink:href="#b"
       transform="matrix(1,0,0,1,233.01406542321138,190) translate(132.14814814814815 37.111111111111114)"
       id="use1502" />
    <use
       xlink:href="#c"
       transform="matrix(1,0,0,1,233.01406542321138,190) translate(268.24691358024694 37.111111111111114)"
       id="use1504" />
    <path
       d="M657 250h115.15"
       stroke="#999"
       stroke-width="2"
       fill="none"
       id="path1506" />
    <path
       d="M657 250h-3v-1h3zM775.15 250h-3v-1h3z"
       fill="#999"
       id="path1508" />
    <path
       d="M428.15 207c0-2.76 2.24-5 5-5h678c2.76 0 5 2.24 5 5v38c0 2.76-2.24 5-5 5h-678c-2.76 0-5-2.24-5-5z"
       fill="none"
       id="path1510" />
    <use
       xlink:href="#d"
       transform="matrix(1,0,0,1,428.1522542178932,202) translate(336.8271604938306 28.4444444444444)"
       id="use1512" />
    <use
       xlink:href="#e"
       transform="matrix(1,0,0,1,428.1522542178932,202) translate(424.3580246913606 28.4444444444444)"
       id="use1514" />
    <use
       xlink:href="#f"
       transform="matrix(1,0,0,1,428.1522542178932,202) translate(492.19753086419945 28.4444444444444)"
       id="use1516" />
    <use
       xlink:href="#g"
       transform="matrix(1,0,0,1,428.1522542178932,202) translate(516.4567901234584 28.4444444444444)"
       id="use1518" />
    <use
       xlink:href="#h"
       transform="matrix(1,0,0,1,428.1522542178932,202) translate(601.580246913581 28.4444444444444)"
       id="use1520" />
    <use
       xlink:href="#i"
       transform="matrix(1,0,0,1,428.1522542178932,202) translate(638.6172839506178 28.4444444444444)"
       id="use1522" />
    <path
       d="M1688.52 953.15l-6.25-6.25-6.25-6.25H140.25L134 946.9l-6.25 6.25z"
       fill="#fff"
       id="path1524" />
    <path
       d="M1688.52 953.15H127.75m12.5-12.5h1535.77m12.5 12.5"
       stroke="#000"
       stroke-width="2"
       fill-opacity="0"
       id="path1526" />
    <use
       xlink:href="#j"
       transform="matrix(1,-1.20861166936185e-12,1.20861166936185e-12,1,994.876074395686,967.14561636303) translate(18.3 14.4)"
       id="use1528" />
    <path
       d="M1676.02 407.48l6.25-6.25 6.25-6.25h-24.05v12.5zm-149.97 0v-12.5H671.47l.6 6.25.63 6.25z"
       fill="#fff"
       id="path1530" />
    <path
       d="M1676.02 407.48h-11.55v-12.5h24.05m-162.47 12.5H672.7m-1.23-12.5h854.58v12.5"
       stroke="#000"
       stroke-width="2"
       fill-opacity="0"
       id="path1532" />
    <use
       xlink:href="#k"
       transform="matrix(1,-2.4492935982947064e-16,2.4492935982947064e-16,1,1149.9936364593182,368.97861635130937) translate(5.800000000000001 14.4)"
       id="use1534" />
    <g
       stroke="#000"
       stroke-width="2"
       fill="#fff"
       id="g1538">
      <path
         d="M428.08 567.53V674.2h-20V567.53zM408.08 567.53V674.2h-20V567.53zM388.08 567.53V674.2h-20V567.53z"
         id="path1536" />
    </g>
    <path
       d="M672.7 407.48l-.62-6.25-.6-6.25-28.44 5.62 2.43 12.27zm-120.25 23.8L550.03 419l.16-.02.6 6.25.6 6.25zm0 0L550.03 419l2.42 12.27z"
       fill="#fff"
       id="path1540" />
    <path
       d="M672.7 407.48l-27.23 5.4-2.43-12.28 28.43-5.62m-119.02 36.3l-1.04.2m-1.2-12.5l-.17.03 2.42 12.27m0 0L550.03 419l2.42 12.27z"
       stroke="#000"
       stroke-width="2"
       fill-opacity="0"
       id="path1542" />
    <use
       xlink:href="#l"
       transform="matrix(0.9809775289537532,-0.19412132208438174,0.19412132208438174,0.9809775289537532,575.7524956329676,387.4157307050824) translate(15.125 14.4)"
       id="use1544" />
    <path
       d="M551.4 431.48l-.6-6.25-.6-6.25H127.74l6.25 6.25 6.25 6.25z"
       fill="#fff"
       id="path1546" />
    <path
       d="M551.4 431.48H140.26m-12.5-12.5H550.2m1.2 12.5"
       stroke="#000"
       stroke-width="2"
       fill-opacity="0"
       id="path1548" />
    <use
       xlink:href="#m"
       transform="matrix(1,-2.4492935982947064e-16,2.4492935982947064e-16,1,309.5817946264983,392.9786163513094) translate(10.125 14.4)"
       id="use1550" />
    <path
       d="M1688.52 394.98l-6.25 6.25-6.25 6.25v533.17l6.25 6.25 6.25 6.25z"
       fill="#fff"
       id="path1552" />
    <path
       d="M1688.52 394.98v558.17m-12.5-12.5V407.48m12.5-12.5"
       stroke="#000"
       stroke-width="2"
       fill-opacity="0"
       id="path1554" />
    <use
       xlink:href="#n"
       transform="matrix(6.123233995736766e-17,1,-1,6.123233995736766e-17,1718.5163939185645,644.0621163512828) translate(10.125 14.4)"
       id="use1556" />
    <path
       d="M880.1 416.98h20v-6h-20zM880.1 392.98h20v-6h-20z"
       fill="none"
       id="path1558" />
    <path
       d="M885.1 408.64v8.34m10-8.34v8.34zm-5-13.56v-8.1zm-10 13.56h19.99V401.83c0-3.75-4.5-6.7-10-6.7s-10 2.95-10 6.7V408.64z"
       stroke="#000"
       stroke-width="2"
       fill="#fff"
       id="path1560" />
    <path
       d="M1032.57 416.98h20v-6h-20zM1032.57 392.98h20v-6h-20z"
       fill="none"
       id="path1562" />
    <path
       d="M1037.57 408.64v8.34m10-8.34v8.34zm-5-13.56v-8.1zm-10 13.56h19.99V401.83c0-3.75-4.5-6.7-10-6.7s-10 2.95-10 6.7V408.64z"
       stroke="#000"
       stroke-width="2"
       fill="#fff"
       id="path1564" />
    <path
       d="M1170.72 416.98h20v-6h-20zM1170.72 392.98h20v-6h-20z"
       fill="none"
       id="path1566" />
    <path
       d="M1175.72 408.64v8.34m10-8.34v8.34zm-5-13.56v-8.1zm-10 13.56H1190.72V401.83c0-3.75-4.5-6.7-10-6.7s-10 2.95-10 6.7V408.64z"
       stroke="#000"
       stroke-width="2"
       fill="#fff"
       id="path1568" />
    <path
       d="M1574.16 932.65h-20v6h20zM1574.16 956.65h-20v6h20z"
       fill="none"
       id="path1570" />
    <path
       d="M1569.16 941v-8.35m-10 8.34v-8.35zm5 13.55v8.1zm10-13.56H1554.16v6.8c0 3.75 4.5 6.7 10 6.7s10-2.95 10-6.7V941z"
       stroke="#000"
       stroke-width="2"
       fill="#fff"
       id="path1572" />
    <path
       d="M1667 823.53v20h6v-20zM1691 823.53v20h6v-20z"
       fill="none"
       id="path1574" />
    <path
       d="M1675.34 828.53H1667m8.34 10H1667zm13.56-5h8.1zm-13.56-10V843.54H1682.15c3.75 0 6.7-4.5 6.7-10s-2.95-10-6.7-10H1675.34z"
       stroke="#000"
       stroke-width="2"
       fill="#fff"
       id="path1576" />
    <path
       d="M1246.57 931.98h-20v6h20zM1246.57 955.98h-20v6h20z"
       fill="none"
       id="path1578" />
    <path
       d="M1241.57 940.32v-8.34m-10 8.34v-8.34zm5 13.56v8.1zm10-13.56H1226.56V947.13c0 3.75 4.5 6.7 10 6.7s10-2.95 10-6.7V940.32z"
       stroke="#000"
       stroke-width="2"
       fill="#fff"
       id="path1580" />
    <path
       d="M651.23 932.65h-20v6h20zM651.23 956.65h-20v6h20z"
       fill="none"
       id="path1582" />
    <path
       d="M646.23 941v-8.35m-10 8.34v-8.35zm5 13.55v8.1zm10-13.56h-19.99v6.8c0 3.75 4.5 6.7 10 6.7s10-2.95 10-6.7V941z"
       stroke="#000"
       stroke-width="2"
       fill="#fff"
       id="path1584" />
    <path
       d="M439 932.7v-20h-6v20zM415 932.7v-20h-6v20z"
       fill="none"
       id="path1586" />
    <path
       d="M430.66 927.7H439m-8.34-10H439zm-13.56 5H409zm13.56 10V912.7H423.85c-3.75 0-6.7 4.5-6.7 10s2.95 10 6.7 10H430.66z"
       stroke="#000"
       stroke-width="2"
       fill="#fff"
       id="path1588" />
    <path
       d="M140.25 431.48l-6.25-6.25-6.25-6.25v34.58h12.5zm0 112.08h-12.5v61.7h12.5zm0 331.37h-12.5v78.22l6.25-6.25 6.25-6.25z"
       fill="#fff"
       id="path1590" />
    <path
       d="M140.25 431.48v22.08h-12.5v-34.58m12.5 124.58v61.7h-12.5v-61.7h12.5zm0 331.37v65.72m-12.5 12.5v-78.22h12.5"
       stroke="#000"
       stroke-width="2"
       fill-opacity="0"
       id="path1592" />
    <use
       xlink:href="#o"
       transform="matrix(6.123233995736766e-17,1,-1,6.123233995736766e-17,170.24999997224006,870.0586388939162) translate(18.3 14.4)"
       id="use1594" />
    <g
       stroke="#000"
       stroke-width="2"
       id="g1600">
      <path
         d="M141.5 605.26v269.67h-15V605.26z"
         fill="#fff"
         id="path1596" />
      <path
         d="M136.5 605.26h-5v269.67h5z"
         id="path1598" />
    </g>
    <g
       fill="none"
       id="g1606">
      <path
         d="M134 543.56l-63.64-63.64M134 453.56c-24.85 0-46.07 8.8-63.64 26.36"
         stroke="#000"
         stroke-width="2"
         id="path1602" />
      <path
         d="M44 543.56v-90h90v90z"
         id="path1604" />
    </g>
    <path
       d="M911.14 931.98h-20v6h20zM911.14 955.98h-20v6h20z"
       fill="none"
       id="path1608" />
    <path
       d="M906.14 940.32v-8.34m-10 8.34v-8.34zm5 13.56v8.1zm10-13.56H891.14V947.13c0 3.75 4.5 6.7 10 6.7s10-2.95 10-6.7V940.32z"
       stroke="#000"
       stroke-width="2"
       fill="#fff"
       id="path1610" />
    <path
       d="M155.55 1098.1h120v15h-120zM275.55 1113.1h120v15h-120zM395.55 1098.1h120v15h-120zM515.55 1113.1h120v15h-120zM635.55 1098.1v15z"
       id="path1612" />
    <path
       d="M155.55 1098.1h480v30h-480z"
       stroke="#000"
       stroke-width="2"
       fill="none"
       id="path1614" />
    <g
       id="g1620">
      <use
         xlink:href="#p"
         transform="matrix(1,0,0,1,155.54747451489357,1068.1130966402602) translate(0 18.6)"
         id="use1616" />
      <use
         xlink:href="#q"
         transform="matrix(1,0,0,1,155.54747451489357,1068.1130966402602) translate(49.95 18.6)"
         id="use1618" />
    </g>
    <g
       id="g1624">
      <use
         xlink:href="#r"
         transform="matrix(1,0,0,1,215.54747451489357,1128.1130966402602) translate(53.3 18.6)"
         id="use1622" />
    </g>
    <g
       id="g1628">
      <use
         xlink:href="#s"
         transform="matrix(1,0,0,1,335.54747451489357,1128.1130966402602) translate(53.3 18.6)"
         id="use1626" />
    </g>
    <g
       id="g1632">
      <use
         xlink:href="#t"
         transform="matrix(1,0,0,1,455.54747451489357,1128.1130966402602) translate(48.3 18.6)"
         id="use1630" />
    </g>
    <g
       id="g1636">
      <use
         xlink:href="#u"
         transform="matrix(1,0,0,1,575.5474745148936,1128.1130966402602) translate(48.3 18.6)"
         id="use1634" />
    </g>
    <g
       id="g1640">
      <path
         d="M1409 668.26v239.32h-60V668.26z"
         stroke="#000"
         stroke-width="2"
         fill="#eee"
         id="path1638" />
    </g>
    <g
       stroke="#000"
       id="g1648">
      <path
         d="M1425.74 641.15c.54 0 1 .5 1 1.17 0 .63-.46 1.17-1 1.17-.56 0-1.02-.55-1.02-1.18 0-.66.46-1.17 1.02-1.17zM1425.74 618.38c.54 0 1 .54 1 1.17 0 .66-.46 1.17-1 1.17-.56 0-1.02-.5-1.02-1.17 0-.63.46-1.17 1.02-1.17z"
         id="path1642" />
      <path
         d="M1408.14 641.15v-20.43c0-.9 1.72-3.54 2.5-3.6l14-1.17c.78-.06 1.4.72 1.4 1.62v26.76c0 .9-.62 1.68-1.4 1.62l-14-1.17c-.78-.06-2.5-2.73-2.5-3.63z"
         fill="#fff"
         id="path1644" />
      <path
         d="M1419.44 624.62c0 1.65 3.26 2.97 7.26 2.97v-5.95c-4 0-7.26 1.32-7.26 2.97zM1426.74 627.6v-5.95h.9v5.94h-.9zM1427.7 627.1v-4.94h.44v4.95h-.44zM1410.64 634.58v-1.74c0-.12.1-.24.22-.24h.42c.12 0 .22.12.22.24v1.74c0 .12-.1.24-.22.24h-.42c-.12 0-.22-.12-.22-.24zM1410.64 631.82v-1.7c0-.16.1-.28.22-.28h.42c.12 0 .22.12.22.27v1.72c0 .15-.1.24-.22.24h-.42c-.12 0-.22-.1-.22-.24zM1410.64 629.06v-1.7c0-.16.1-.28.22-.28h.42c.12 0 .22.12.22.27v1.7c0 .16-.1.25-.22.25h-.42c-.12 0-.22-.1-.22-.24zM1409.36 634.58v-1.74c0-.12.08-.24.22-.24h.42c.12 0 .22.12.22.24v1.74c0 .12-.1.24-.22.24h-.42c-.14 0-.22-.12-.22-.24zM1409.36 631.82v-1.7c0-.16.08-.28.22-.28h.42c.12 0 .22.12.22.27v1.72c0 .15-.1.24-.22.24h-.42c-.14 0-.22-.1-.22-.24zM1409.36 629.06v-1.7c0-.16.08-.28.22-.28h.42c.12 0 .22.12.22.27v1.7c0 .16-.1.25-.22.25h-.42c-.14 0-.22-.1-.22-.24zM1415.36 628.43c1.4 0 2.54 1.14 2.54 2.52 0 1.4-1.14 2.52-2.54 2.52-1.4 0-2.52-1.1-2.52-2.52 0-1.38 1.12-2.52 2.52-2.52z"
         fill="#fff"
         id="path1646" />
    </g>
    <path
       d="M1210 907.98h121.1v30.67H1210zM807.95 906.98h121.1v30.67h-121.1z"
       stroke="#000"
       stroke-width="2"
       fill="#eee"
       id="path1650" />
    <path
       d="M1057.57 419.7h58.9v149.06h-58.9zM1218.76 416.98h58.9v149.07h-58.9z"
       stroke="#000"
       stroke-width="2"
       id="path1652" />
    <g
       id="g1662">
      <path
         d="M1374.26 777.17v-32.72c0-.76.63-1.4 1.44-1.4h16.6c.8 0 1.46.64 1.46 1.4v32.72c0 .76-.66 1.4-1.47 1.4h-16.6c-.8 0-1.44-.64-1.44-1.4zM1364.24 779.1v-36.57c0-.8.24-1.52.5-1.48l8.5 2c.27.08.5.68.5 1.48v32.56c0 .8-.23 1.4-.5 1.47l-8.5 2c-.26.04-.5-.68-.5-1.48z"
         stroke="#000"
         fill="#fff"
         id="path1654" />
      <path
         d="M1375.76 777.05v-32.48h10.98v32.48h-10.98z"
         stroke="#000"
         fill="gray"
         id="path1656" />
      <path
         d="M1365 779.05v-36.48l8 2v32.48l-8 2z"
         id="path1658" />
      <path
         d="M1387.76 763v-4.4c0-.43.36-.8.8-.8h2.38c.45 0 .8.37.8.8v4.4c0 .45-.35.8-.8.8h-2.37c-.45 0-.8-.35-.8-.8z"
         stroke="#000"
         fill="#fff"
         id="path1660" />
    </g>
    <g
       id="g1668">
      <path
         d="M453.5 888.22v-200.6h26.43v200.6H453.5z"
         id="path1664" />
      <path
         d="M447.03 892.68V824.9c0-.64.6-1.28 1.4-1.28h12.07c.8 0 1.4.64 1.4 1.28v67.78c0 .64-.6 1.07-1.4 1.07h-12.07c-.8 0-1.4-.43-1.4-1.07zM447.03 821.92v-68c0-.64.6-1.06 1.4-1.06h12.07c.8 0 1.4.42 1.4 1.06v68c0 .64-.6 1.06-1.4 1.06h-12.07c-.8 0-1.4-.42-1.4-1.06zM447.03 750.95v-67.8c0-.63.6-1.05 1.4-1.05h12.07c.8 0 1.4.42 1.4 1.06v67.8c0 .62-.6 1.26-1.4 1.26h-12.07c-.8 0-1.4-.64-1.4-1.27zM462.78 691.87h40.16c3.15 0 5.77-1.06 5.77-2.55v-4.46c0-1.5-2.6-2.76-5.76-2.76h-40.16v9.77zM462.78 747.55v-50.37c0-2.55 2.53-4.46 5.6-4.46h59.67c3.06 0 5.6 1.9 5.6 4.46v50.37c0 2.55-2.54 4.67-5.6 4.67h-59.67c-3.07 0-5.6-2.12-5.6-4.67zM462.78 893.75h40.16c3.15 0 5.77-1.07 5.77-2.55v-4.47c0-1.48-2.6-2.76-5.76-2.76h-40.16v9.78zM462.78 878.66V828.3c0-2.55 2.53-4.68 5.6-4.68h59.67c3.06 0 5.6 2.13 5.6 4.68v50.36c0 2.55-2.54 4.46-5.6 4.46h-59.67c-3.07 0-5.6-1.9-5.6-4.46zM462.78 818.95V756.9c0-2.13 2.27-4.04 4.98-4.04h60.9c2.72 0 5 1.9 5 4.04v62.05c0 2.12-2.28 4.03-5 4.03h-60.9c-2.7 0-4.98-1.9-4.98-4.03z"
         stroke="#000"
         stroke-width="2"
         fill="#bbb"
         id="path1666" />
    </g>
    <g
       stroke="#000"
       stroke-width="2"
       id="g1678">
      <path
         d="M600.6 907.5L564.7 887c-1.24-.72-1.6-2.44-.75-3.9l20.1-35.16c.8-1.4 2.45-1.98 3.7-1.27l35.9 20.52c1.3.73 1.64 2.45.84 3.85l-20.1 35.17c-.84 1.45-2.5 2.03-3.8 1.3z"
         fill="#bbb"
         id="path1670" />
      <path
         d="M559 891.54l20.75-36.3-2.48-1.43c-.58-.32-1.38-.02-1.77.66l-19.32 33.8c-.42.74-.24 1.53.34 1.86l2.48 1.42z"
         id="path1672" />
      <path
         d="M593.96 919.26L558 898.7c-1.24-.7-1.6-2.42-.78-3.83l3.72-6.5c.83-1.47 2.5-2.04 3.73-1.33l35.96 20.55c1.24.7 1.6 2.42.76 3.88l-3.74 6.5c-.8 1.4-2.46 2-3.7 1.28z"
         fill="#bbb"
         id="path1674" />
      <path
         d="M599.64 914.76l20.75-36.3 2.42 1.38c.62.36.77 1.2.4 1.88l-19.34 33.8c-.4.74-1.2 1-1.8.63l-2.44-1.4z"
         id="path1676" />
    </g>
    <g
       stroke="#000"
       stroke-width="2"
       id="g1688">
      <path
         d="M723.1 872.23l-29.24 29.24c-1 1.02-2.76.9-3.95-.3l-28.63-28.63c-1.15-1.14-1.26-2.9-.25-3.9l29.24-29.25c1.05-1.06 2.8-.94 3.95.2l28.65 28.64c1.2 1.2 1.3 2.94.25 4z"
         fill="#bbb"
         id="path1680" />
      <path
         d="M696.74 908.17l-29.57-29.57-2.02 2.03c-.47.46-.4 1.32.16 1.87l27.55 27.53c.6.6 1.4.63 1.87.17l2.02-2.03z"
         id="path1682" />
      <path
         d="M732.7 881.74l-29.3 29.28c-1 1-2.76.9-3.9-.25l-5.3-5.3c-1.2-1.2-1.3-2.94-.3-3.95l29.28-29.3c1-1 2.76-.88 3.95.3l5.3 5.3c1.15 1.15 1.27 2.9.26 3.92z"
         fill="#bbb"
         id="path1684" />
      <path
         d="M729.84 875.08l-29.57-29.57 1.98-1.98c.5-.5 1.36-.42 1.92.13l27.53 27.53c.6.6.63 1.4.12 1.9l-1.98 2z"
         id="path1686" />
    </g>
    <g
       stroke="#000"
       stroke-width="2"
       fill="#bbb"
       id="g1696">
      <path
         d="M905.1 816.25c17 6.67 17 6.67 31.18 18.07-5.77 15.15-5.77 15.15-14.52 30.25-18.63-8.95-18.63-8.95-35.7-20.7 8.76-15.08 8.76-15.08 19.03-27.62z"
         id="path1690" />
      <path
         d="M926 814.9l1.07.62c.6.35.8 1.03.46 1.6l-4.44 7.65c-.33.57-1.02.75-1.62.4l-1.08-.63c-.57-.33-.8-1.03-.47-1.6l4.44-7.65c.33-.58 1.05-.73 1.62-.4zM911.13 808.13l1.17.56c.6.28.88.97.6 1.55l-3.72 8.02c-.26.54-.97.77-1.56.5l-1.2-.54c-.58-.28-.83-.94-.55-1.53l3.72-8.02c.27-.58.94-.83 1.53-.55zM918.7 811.3l1.1.6c.6.27.82.98.54 1.57l-4.07 7.8c-.28.6-1.03.8-1.6.48l-1.17-.57c-.56-.33-.8-1.03-.46-1.6l4.07-7.8c.3-.6 1-.82 1.6-.47zM932.74 819.4l1.1.68c.57.33.72 1.06.35 1.6l-4.76 7.4c-.33.57-1.06.72-1.62.4l-1.07-.74c-.57-.33-.72-1.05-.4-1.6l4.76-7.43c.38-.52 1.1-.68 1.64-.3zM939.25 824.3l1.08.75c.53.37.65 1.07.28 1.6l-5.05 7.25c-.42.5-1.12.62-1.66.26l-1.06-.8c-.53-.36-.7-1.08-.35-1.58l5.1-7.2c.37-.55 1.1-.63 1.65-.27z"
         id="path1692" />
      <path
         d="M906.35 801.72c22.28 9.9 22.28 9.9 41.9 24.3.8 2.13-2.65 3.88-4.82 4.24-19.55-14.62-15.96-12.54-38.37-22.24-.77-2.06-.9-5.9 1.3-6.3z"
         id="path1694" />
    </g>
    <g
       id="g1700">
      <path
         d="M905 422.98v138.67h-30.67V422.98z"
         stroke="#000"
         stroke-width="2"
         fill="#fff"
         id="path1698" />
    </g>
    <g
       id="g1704">
      <path
         d="M1050 423.64V562.3h-30.67V423.65z"
         stroke="#000"
         stroke-width="2"
         fill="#fff"
         id="path1702" />
    </g>
    <g
       id="g1708">
      <path
         d="M1208.67 419.24V557.9H1178V419.25z"
         stroke="#000"
         stroke-width="2"
         fill="#fff"
         id="path1706" />
    </g>
    <g
       stroke="#000"
       stroke-width="2"
       fill="#bbb"
       id="g1716">
      <path
         d="M823.3 827.15c17.32-5.8 17.32-5.8 35.52-6.2 5.32 15.3 5.32 15.3 8.32 32.5-20 5.12-20 5.12-40.63 7.1-3-17.2-3-17.2-3.2-33.4z"
         id="path1710" />
      <path
         d="M838.45 812.68l1.23-.2c.7-.13 1.27.27 1.38.9l1.52 8.73c.1.65-.3 1.23-.98 1.35l-1.23.22c-.64.1-1.27-.3-1.38-.93l-1.54-8.72c-.1-.64.35-1.23 1-1.34zM822.7 817.06l1.28-.33c.63-.16 1.3.18 1.46.8l2.3 8.55c.15.58-.24 1.2-.87 1.37l-1.26.37c-.62.16-1.24-.2-1.4-.82l-2.3-8.53c-.17-.63.18-1.25.8-1.4zM830.56 814.62l1.22-.27c.64-.16 1.26.24 1.43.87l1.9 8.6c.18.63-.27 1.27-.9 1.38l-1.28.32c-.64.12-1.26-.28-1.38-.92l-1.9-8.6c-.17-.63.23-1.26.92-1.38zM846.5 811.78l1.3-.17c.64-.1 1.23.35 1.3 1l1.1 8.74c.12.64-.33 1.22-.97 1.34l-1.3.12c-.64.1-1.23-.34-1.34-.98l-1.13-8.74c-.06-.65.4-1.24 1.04-1.3zM854.66 811.37l1.3-.12c.65-.07 1.2.4 1.25 1.05l.8 8.8c0 .65-.46 1.2-1.1 1.25l-1.32.08c-.65.06-1.24-.4-1.3-1l-.72-8.8c-.06-.65.45-1.2 1.1-1.26z"
         id="path1712" />
      <path
         d="M814.93 815.22c23.44-6.74 23.44-6.74 47.73-8.34 1.97 1.12.46 4.7-.97 6.36-24.4 1.37-20.3.65-43.7 7.63-1.9-1.08-4.5-3.93-3.07-5.65z"
         id="path1714" />
    </g>
    <g
       stroke="#000"
       fill="#ddd"
       id="g1722">
      <path
         d="M1284.66 935.27h-30.9c-2.55 0-4.57-1.74-4.57-3.9v-6.45c0-2.16 2-3.9 4.56-3.9h30.9c2.55 0 4.58 1.74 4.58 3.9v6.45c0 2.16-2.03 3.9-4.58 3.9z"
         id="path1718" />
      <path
         d="M1300.1 924.92h-61.8l-6.14-3.9h74.1l-6.15 3.9zM1285.56 927.5h-32.7v-2.46h32.7v2.46zM1269.2 932.98c1.2 0 2.26-.86 2.26-1.9 0-.38-.15-.74-.37-1.04v-2.4h-3.76v2.4c-.23.3-.38.66-.38 1.03 0 1.05 1.05 1.9 2.25 1.9z"
         id="path1720" />
    </g>
    <g
       stroke="#000"
       fill="#ddd"
       id="g1728">
      <path
         d="M889.66 930.27h-30.9c-2.55 0-4.57-1.74-4.57-3.9v-6.45c0-2.16 2-3.9 4.56-3.9h30.9c2.55 0 4.58 1.74 4.58 3.9v6.45c0 2.16-2.03 3.9-4.58 3.9z"
         id="path1724" />
      <path
         d="M905.1 919.92h-61.8l-6.14-3.9h74.1l-6.15 3.9zM890.56 922.5h-32.7v-2.46h32.7v2.46zM874.2 927.98c1.2 0 2.26-.86 2.26-1.9 0-.38-.15-.74-.37-1.04v-2.4h-3.76v2.4c-.23.3-.38.66-.38 1.03 0 1.05 1.05 1.9 2.25 1.9z"
         id="path1726" />
    </g>
    <g
       stroke="#000"
       stroke-width="2"
       fill="#bbb"
       id="g1736">
      <path
         d="M1296.47 835.75c17 6.67 17 6.67 31.2 18.08-5.78 15.14-5.78 15.14-14.53 30.24-18.63-8.95-18.63-8.95-35.7-20.7 8.76-15.08 8.76-15.08 19.03-27.62z"
         id="path1730" />
      <path
         d="M1317.37 834.4l1.08.62c.6.35.8 1.04.46 1.6l-4.42 7.65c-.33.57-1 .75-1.62.4l-1.08-.63c-.56-.33-.8-1.03-.46-1.6l4.44-7.65c.32-.58 1.05-.73 1.6-.4zM1302.5 827.63l1.18.56c.6.28.88.97.6 1.56l-3.72 8c-.26.55-.96.78-1.55.5l-1.2-.53c-.58-.28-.83-.94-.55-1.53l3.72-8.02c.3-.58.95-.83 1.54-.55zM1310.1 830.8l1.1.6c.58.27.8.98.52 1.57l-4.06 7.8c-.3.6-1.04.8-1.6.48l-1.18-.57c-.56-.33-.78-1.03-.46-1.6l4.07-7.8c.27-.6.98-.82 1.6-.47zM1324.13 838.9l1.1.68c.56.33.72 1.06.35 1.6l-4.76 7.4c-.33.57-1.05.73-1.62.4l-1.07-.74c-.56-.32-.72-1.05-.4-1.6l4.76-7.43c.36-.52 1.1-.68 1.63-.3zM1330.63 843.82l1.08.73c.55.37.66 1.07.3 1.6l-5.07 7.25c-.4.5-1.12.62-1.65.26l-1.05-.8c-.54-.36-.7-1.08-.35-1.58l5.1-7.2c.37-.55 1.12-.63 1.65-.26z"
         id="path1732" />
      <path
         d="M1297.73 821.22c22.28 9.9 22.28 9.9 41.92 24.3.78 2.13-2.66 3.88-4.83 4.24-19.56-14.62-15.97-12.54-38.38-22.24-.76-2.06-.9-5.9 1.3-6.3z"
         id="path1734" />
    </g>
    <g
       stroke="#000"
       stroke-width="2"
       fill="#bbb"
       id="g1744">
      <path
         d="M1205.36 837.2c17.3-5.82 17.3-5.82 35.5-6.2 5.33 15.3 5.33 15.3 8.33 32.5-20.02 5.12-20.02 5.12-40.64 7.1-3-17.2-3-17.2-3.2-33.4z"
         id="path1738" />
      <path
         d="M1220.5 822.73l1.23-.22c.7-.1 1.27.3 1.38.94l1.53 8.7c.1.66-.3 1.23-.98 1.35l-1.23.2c-.64.12-1.27-.28-1.38-.92l-1.53-8.7c-.1-.65.36-1.24 1-1.35zM1204.76 827.1l1.27-.32c.63-.16 1.3.18 1.46.8l2.3 8.54c.14.58-.25 1.2-.88 1.37l-1.26.36c-.63.16-1.25-.2-1.4-.82l-2.3-8.53c-.18-.62.17-1.24.8-1.4zM1212.6 824.66l1.23-.26c.64-.16 1.26.23 1.43.87l1.9 8.6c.17.63-.28 1.26-.92 1.38l-1.27.32c-.64.1-1.26-.3-1.38-.93l-1.9-8.6c-.18-.63.22-1.26.9-1.38zM1228.56 821.82l1.3-.17c.63-.1 1.22.34 1.28 1l1.12 8.73c.1.64-.34 1.23-.98 1.34l-1.3.12c-.64.12-1.23-.34-1.34-.98l-1.12-8.74c-.06-.65.4-1.23 1.04-1.3zM1236.7 821.4l1.3-.1c.66-.07 1.2.4 1.26 1.04l.78 8.8c0 .66-.45 1.2-1.1 1.26l-1.3.07c-.66.06-1.25-.4-1.3-1l-.73-8.8c-.05-.65.46-1.2 1.1-1.26z"
         id="path1740" />
      <path
         d="M1196.98 825.26c23.44-6.73 23.44-6.73 47.73-8.34 1.98 1.13.47 4.7-.96 6.36-24.38 1.37-20.3.66-43.7 7.64-1.9-1.1-4.48-3.94-3.06-5.66z"
         id="path1742" />
    </g>
    <g
       stroke="#000"
       stroke-width="2"
       id="g1750">
      <path
         d="M1650 757.92v-240h5v240z"
         fill="#fff"
         id="path1746" />
      <path
         d="M1670 661.92l-10-24 10-24m-10 24h-5"
         fill="none"
         id="path1748" />
    </g>
    <path
       d="M272.07 661.93c0 25.16-20.06 45.56-44.8 45.56-24.75 0-44.8-20.4-44.8-45.57s20.05-45.57 44.8-45.57c24.74 0 44.8 20.4 44.8 45.57"
       stroke="#000"
       stroke-width="2"
       fill="#ddd"
       id="path1752" />
    <defs
       id="defs1993">
      <path
         fill="#999"
         d="M67-125c0 54 23 88 75 88 28 0 53-7 68-21v-34h-60v-39h108v91C232-14 192 4 140 4 58 4 20-42 15-125 8-236 126-280 215-234c19 10 29 26 37 47l-47 15c-11-23-29-39-63-39-53 1-75 33-75 86"
         id="v" />
      <path
         fill="#999"
         d="M238-95c0 69-44 99-111 99C63 4 22-25 22-93v-155h51v151c-1 38 19 59 55 60 90 1 49-130 58-211h52v153"
         id="w" />
      <path
         fill="#999"
         d="M24 0v-248h195v40H76v63h132v40H76v65h150V0H24"
         id="x" />
      <path
         fill="#999"
         d="M169-182c-1-43-94-46-97-3 18 66 151 10 154 114 3 95-165 93-204 36-6-8-10-19-12-30l50-8c3 46 112 56 116 5-17-69-150-10-154-114-4-87 153-88 188-35 5 8 8 18 10 28"
         id="y" />
      <path
         fill="#999"
         d="M136-208V0H84v-208H4v-40h212v40h-80"
         id="z" />
      <g
         id="a">
        <use
           transform="matrix(0.09876543209876544,0,0,0.09876543209876544,0,0)"
           xlink:href="#v"
           id="use1759" />
        <use
           transform="matrix(0.09876543209876544,0,0,0.09876543209876544,27.654320987654323,0)"
           xlink:href="#w"
           id="use1761" />
        <use
           transform="matrix(0.09876543209876544,0,0,0.09876543209876544,53.23456790123457,0)"
           xlink:href="#x"
           id="use1763" />
        <use
           transform="matrix(0.09876543209876544,0,0,0.09876543209876544,76.93827160493828,0)"
           xlink:href="#y"
           id="use1765" />
        <use
           transform="matrix(0.09876543209876544,0,0,0.09876543209876544,100.64197530864199,0)"
           xlink:href="#z"
           id="use1767" />
      </g>
      <path
         fill="#999"
         d="M186 0v-106H76V0H24v-248h52v99h110v-99h50V0h-50"
         id="A" />
      <path
         fill="#999"
         d="M140-251c80 0 125 45 125 126S219 4 139 4C58 4 15-44 15-125s44-126 125-126zm-1 214c52 0 73-35 73-88 0-50-21-86-72-86-52 0-73 35-73 86s22 88 72 88"
         id="B" />
      <g
         id="b">
        <use
           transform="matrix(0.09876543209876544,0,0,0.09876543209876544,0,0)"
           xlink:href="#A"
           id="use1772" />
        <use
           transform="matrix(0.09876543209876544,0,0,0.09876543209876544,25.58024691358025,0)"
           xlink:href="#B"
           id="use1774" />
        <use
           transform="matrix(0.09876543209876544,0,0,0.09876543209876544,53.23456790123457,0)"
           xlink:href="#w"
           id="use1776" />
        <use
           transform="matrix(0.09876543209876544,0,0,0.09876543209876544,78.81481481481482,0)"
           xlink:href="#y"
           id="use1778" />
        <use
           transform="matrix(0.09876543209876544,0,0,0.09876543209876544,102.51851851851853,0)"
           xlink:href="#x"
           id="use1780" />
      </g>
      <path
         fill="#999"
         d="M147 0H94L2-248h55l64 206c17-72 42-137 63-206h54"
         id="C" />
      <path
         fill="#999"
         d="M175 0L67-191c6 58 2 128 3 191H24v-248h59L193-55c-6-58-2-129-3-193h46V0h-61"
         id="D" />
      <g
         id="c">
        <use
           transform="matrix(0.09876543209876544,0,0,0.09876543209876544,0,0)"
           xlink:href="#C"
           id="use1785" />
        <use
           transform="matrix(0.09876543209876544,0,0,0.09876543209876544,23.703703703703706,0)"
           xlink:href="#x"
           id="use1787" />
        <use
           transform="matrix(0.09876543209876544,0,0,0.09876543209876544,47.40740740740741,0)"
           xlink:href="#D"
           id="use1789" />
        <use
           transform="matrix(0.09876543209876544,0,0,0.09876543209876544,72.98765432098766,0)"
           xlink:href="#w"
           id="use1791" />
        <use
           transform="matrix(0.09876543209876544,0,0,0.09876543209876544,98.56790123456791,0)"
           xlink:href="#x"
           id="use1793" />
      </g>
      <path
         fill="#999"
         d="M63-220v92h138v28H63V0H30v-248h175v28H63"
         id="E" />
      <path
         fill="#999"
         d="M141-36C126-15 110 5 73 4 37 3 15-17 15-53c-1-64 63-63 125-63 3-35-9-54-41-54-24 1-41 7-42 31l-33-3c5-37 33-52 76-52 45 0 72 20 72 64v82c-1 20 7 32 28 27v20c-31 9-61-2-59-35zM48-53c0 20 12 33 32 33 41-3 63-29 60-74-43 2-92-5-92 41"
         id="F" />
      <path
         fill="#999"
         d="M24 0v-261h32V0H24"
         id="G" />
      <path
         fill="#999"
         d="M96-169c-40 0-48 33-48 73s9 75 48 75c24 0 41-14 43-38l32 2c-6 37-31 61-74 61-59 0-76-41-82-99-10-93 101-131 147-64 4 7 5 14 7 22l-32 3c-4-21-16-35-41-35"
         id="H" />
      <path
         fill="#999"
         d="M100-194c62-1 85 37 85 99 1 63-27 99-86 99S16-35 15-95c0-66 28-99 85-99zM99-20c44 1 53-31 53-75 0-43-8-75-51-75s-53 32-53 75 10 74 51 75"
         id="I" />
      <path
         fill="#999"
         d="M117-194c89-4 53 116 60 194h-32v-121c0-31-8-49-39-48C34-167 62-67 57 0H25l-1-190h30c1 10-1 24 2 32 11-22 29-35 61-36"
         id="J" />
      <path
         fill="#999"
         d="M195 0l-74-108L45 0H8l94-129-87-119h37l69 98 67-98h37l-84 118L233 0h-38"
         id="K" />
      <g
         id="d">
        <use
           transform="matrix(0.06172839506172778,0,0,0.06172839506172778,0,0)"
           xlink:href="#E"
           id="use1803" />
        <use
           transform="matrix(0.06172839506172778,0,0,0.06172839506172778,13.518518518518384,0)"
           xlink:href="#F"
           id="use1805" />
        <use
           transform="matrix(0.06172839506172778,0,0,0.06172839506172778,25.86419753086394,0)"
           xlink:href="#G"
           id="use1807" />
        <use
           transform="matrix(0.06172839506172778,0,0,0.06172839506172778,30.740740740740435,0)"
           xlink:href="#H"
           id="use1809" />
        <use
           transform="matrix(0.06172839506172778,0,0,0.06172839506172778,41.851851851851436,0)"
           xlink:href="#I"
           id="use1811" />
        <use
           transform="matrix(0.06172839506172778,0,0,0.06172839506172778,54.19753086419699,0)"
           xlink:href="#J"
           id="use1813" />
        <use
           transform="matrix(0.06172839506172778,0,0,0.06172839506172778,66.54320987654255,0)"
           xlink:href="#K"
           id="use1815" />
      </g>
      <path
         fill="#999"
         d="M160-131c35 5 61 23 61 61C221 17 115-2 30 0v-248c76 3 177-17 177 60 0 33-19 50-47 57zm-97-11c50-1 110 9 110-42 0-47-63-36-110-37v79zm0 115c55-2 124 14 124-45 0-56-70-42-124-44v89"
         id="L" />
      <path
         fill="#999"
         d="M135-143c-3-34-86-38-87 0 15 53 115 12 119 90S17 21 10-45l28-5c4 36 97 45 98 0-10-56-113-15-118-90-4-57 82-63 122-42 12 7 21 19 24 35"
         id="M" />
      <path
         fill="#999"
         d="M59-47c-2 24 18 29 38 22v24C64 9 27 4 27-40v-127H5v-23h24l9-43h21v43h35v23H59v120"
         id="N" />
      <g
         id="e">
        <use
           transform="matrix(0.06172839506172778,0,0,0.06172839506172778,0,0)"
           xlink:href="#L"
           id="use1821" />
        <use
           transform="matrix(0.06172839506172778,0,0,0.06172839506172778,14.814814814814667,0)"
           xlink:href="#G"
           id="use1823" />
        <use
           transform="matrix(0.06172839506172778,0,0,0.06172839506172778,19.691358024691162,0)"
           xlink:href="#F"
           id="use1825" />
        <use
           transform="matrix(0.06172839506172778,0,0,0.06172839506172778,32.03703703703672,0)"
           xlink:href="#M"
           id="use1827" />
        <use
           transform="matrix(0.06172839506172778,0,0,0.06172839506172778,43.14814814814772,0)"
           xlink:href="#N"
           id="use1829" />
      </g>
      <path
         fill="#999"
         d="M32 76v-337h29V76H32"
         id="O" />
      <use
         transform="matrix(0.06172839506172778,0,0,0.06172839506172778,0,0)"
         xlink:href="#O"
         id="f" />
      <path
         fill="#999"
         d="M140-251c81 0 123 46 123 126C263-46 219 4 140 4 59 4 17-45 17-125s42-126 123-126zm0 227c63 0 89-41 89-101s-29-99-89-99c-61 0-89 39-89 99S79-25 140-24"
         id="P" />
      <path
         fill="#999"
         d="M115-194c53 0 69 39 70 98 0 66-23 100-70 100C84 3 66-7 56-30L54 0H23l1-261h32v101c10-23 28-34 59-34zm-8 174c40 0 45-34 45-75 0-40-5-75-45-74-42 0-51 32-51 76 0 43 10 73 51 73"
         id="Q" />
      <path
         fill="#999"
         d="M100-194c63 0 86 42 84 106H49c0 40 14 67 53 68 26 1 43-12 49-29l28 8c-11 28-37 45-77 45C44 4 14-33 15-96c1-61 26-98 85-98zm52 81c6-60-76-77-97-28-3 7-6 17-6 28h103"
         id="R" />
      <path
         fill="#999"
         d="M114-163C36-179 61-72 57 0H25l-1-190h30c1 12-1 29 2 39 6-27 23-49 58-41v29"
         id="S" />
      <g
         id="g">
        <use
           transform="matrix(0.06172839506172778,0,0,0.06172839506172778,0,0)"
           xlink:href="#P"
           id="use1838" />
        <use
           transform="matrix(0.06172839506172778,0,0,0.06172839506172778,17.28395061728378,0)"
           xlink:href="#H"
           id="use1840" />
        <use
           transform="matrix(0.06172839506172778,0,0,0.06172839506172778,28.39506172839478,0)"
           xlink:href="#N"
           id="use1842" />
        <use
           transform="matrix(0.06172839506172778,0,0,0.06172839506172778,34.56790123456756,0)"
           xlink:href="#I"
           id="use1844" />
        <use
           transform="matrix(0.06172839506172778,0,0,0.06172839506172778,46.913580246913114,0)"
           xlink:href="#Q"
           id="use1846" />
        <use
           transform="matrix(0.06172839506172778,0,0,0.06172839506172778,59.25925925925867,0)"
           xlink:href="#R"
           id="use1848" />
        <use
           transform="matrix(0.06172839506172778,0,0,0.06172839506172778,71.60493827160423,0)"
           xlink:href="#S"
           id="use1850" />
      </g>
      <path
         fill="#999"
         d="M27 0v-27h64v-190l-56 39v-29l58-41h29v221h61V0H27"
         id="T" />
      <path
         fill="#999"
         d="M110-160c48 1 74 30 74 79 0 53-28 85-80 85-65 0-83-55-86-122-5-90 50-162 133-122 14 7 22 21 27 39l-31 6c-5-40-67-38-82-6-9 19-15 44-15 74 11-20 30-34 60-33zm-7 138c34 0 49-23 49-58s-16-56-50-56c-29 0-50 16-49 49 1 36 15 65 50 65"
         id="U" />
      <path
         fill="#999"
         d="M68-38c1 34 0 65-14 84H32c9-13 17-26 17-46H33v-38h35"
         id="V" />
      <g
         id="h">
        <use
           transform="matrix(0.06172839506172778,0,0,0.06172839506172778,0,0)"
           xlink:href="#T"
           id="use1856" />
        <use
           transform="matrix(0.06172839506172778,0,0,0.06172839506172778,12.345679012345556,0)"
           xlink:href="#U"
           id="use1858" />
        <use
           transform="matrix(0.06172839506172778,0,0,0.06172839506172778,24.691358024691112,0)"
           xlink:href="#V"
           id="use1860" />
      </g>
      <path
         fill="#999"
         d="M101-251c82-7 93 87 43 132L82-64C71-53 59-42 53-27h129V0H18c2-99 128-94 128-182 0-28-16-43-45-43s-46 15-49 41l-32-3c6-41 34-60 81-64"
         id="W" />
      <path
         fill="#999"
         d="M101-251c68 0 85 55 85 127S166 4 100 4C33 4 14-52 14-124c0-73 17-127 87-127zm-1 229c47 0 54-49 54-102s-4-102-53-102c-51 0-55 48-55 102 0 53 5 102 54 102"
         id="X" />
      <path
         fill="#999"
         d="M134-131c28 9 52 24 51 62-1 50-34 73-85 73S17-19 16-69c0-36 21-54 49-61-75-25-45-126 34-121 46 3 78 18 79 63 0 33-17 51-44 57zm-34-11c31 1 46-15 46-44 0-28-17-43-47-42-29 0-46 13-45 42 1 28 16 44 46 44zm1 122c35 0 51-18 51-52 0-30-18-46-53-46-33 0-51 17-51 47 0 34 19 51 53 51"
         id="Y" />
      <g
         id="i">
        <use
           transform="matrix(0.06172839506172778,0,0,0.06172839506172778,0,0)"
           xlink:href="#W"
           id="use1866" />
        <use
           transform="matrix(0.06172839506172778,0,0,0.06172839506172778,12.345679012345556,0)"
           xlink:href="#X"
           id="use1868" />
        <use
           transform="matrix(0.06172839506172778,0,0,0.06172839506172778,24.691358024691112,0)"
           xlink:href="#T"
           id="use1870" />
        <use
           transform="matrix(0.06172839506172778,0,0,0.06172839506172778,37.03703703703667,0)"
           xlink:href="#Y"
           id="use1872" />
      </g>
      <path
         d="M54-142c48-35 137-8 131 61C196 18 31 33 14-55l32-4c7 23 22 37 52 37 35-1 51-22 54-58 4-55-73-65-99-34H22l8-134h141v27H59"
         id="Z" />
      <path
         d="M101-251c82-7 93 87 43 132L82-64C71-53 59-42 53-27h129V0H18c2-99 128-94 128-182 0-28-16-43-45-43s-46 15-49 41l-32-3c6-41 34-60 81-64"
         id="aa" />
      <path
         d="M47-170H22l-4-78h33"
         id="ab" />
      <g
         id="j">
        <use
           transform="matrix(0.05,0,0,0.05,0,0)"
           xlink:href="#Z"
           id="use1878" />
        <use
           transform="matrix(0.05,0,0,0.05,10,0)"
           xlink:href="#aa"
           id="use1880" />
        <use
           transform="matrix(0.05,0,0,0.05,20,0)"
           xlink:href="#ab"
           id="use1882" />
      </g>
      <path
         d="M126-127c33 6 58 20 58 59 0 88-139 92-164 29-3-8-5-16-6-25l32-3c6 27 21 44 54 44 32 0 52-15 52-46 0-38-36-46-79-43v-28c39 1 72-4 72-42 0-27-17-43-46-43-28 0-47 15-49 41l-32-3c6-42 35-63 81-64 48-1 79 21 79 65 0 36-21 52-52 59"
         id="ac" />
      <path
         d="M27 0v-27h64v-190l-56 39v-29l58-41h29v221h61V0H27"
         id="ad" />
      <path
         d="M109-170H84l-4-78h32zm-65 0H19l-4-78h33"
         id="ae" />
      <g
         id="k">
        <use
           transform="matrix(0.05,0,0,0.05,0,0)"
           xlink:href="#ac"
           id="use1888" />
        <use
           transform="matrix(0.05,0,0,0.05,10,0)"
           xlink:href="#ac"
           id="use1890" />
        <use
           transform="matrix(0.05,0,0,0.05,20,0)"
           xlink:href="#ab"
           id="use1892" />
        <use
           transform="matrix(0.05,0,0,0.05,23.4,0)"
           xlink:href="#ad"
           id="use1894" />
        <use
           transform="matrix(0.05,0,0,0.05,32.05,0)"
           xlink:href="#ad"
           id="use1896" />
        <use
           transform="matrix(0.05,0,0,0.05,42.05,0)"
           xlink:href="#ae"
           id="use1898" />
      </g>
      <path
         d="M155-56V0h-30v-56H8v-25l114-167h33v167h35v25h-35zm-30-156c-27 46-58 90-88 131h88v-131"
         id="af" />
      <g
         id="l">
        <use
           transform="matrix(0.05,0,0,0.05,0,0)"
           xlink:href="#af"
           id="use1902" />
        <use
           transform="matrix(0.05,0,0,0.05,10,0)"
           xlink:href="#ab"
           id="use1904" />
        <use
           transform="matrix(0.05,0,0,0.05,13.4,0)"
           xlink:href="#aa"
           id="use1906" />
        <use
           transform="matrix(0.05,0,0,0.05,23.4,0)"
           xlink:href="#ae"
           id="use1908" />
      </g>
      <g
         id="m">
        <use
           transform="matrix(0.05,0,0,0.05,0,0)"
           xlink:href="#ad"
           id="use1911" />
        <use
           transform="matrix(0.05,0,0,0.05,10,0)"
           xlink:href="#af"
           id="use1913" />
        <use
           transform="matrix(0.05,0,0,0.05,20,0)"
           xlink:href="#ab"
           id="use1915" />
        <use
           transform="matrix(0.05,0,0,0.05,23.4,0)"
           xlink:href="#ad"
           id="use1917" />
        <use
           transform="matrix(0.05,0,0,0.05,33.4,0)"
           xlink:href="#ae"
           id="use1919" />
      </g>
      <path
         d="M134-131c28 9 52 24 51 62-1 50-34 73-85 73S17-19 16-69c0-36 21-54 49-61-75-25-45-126 34-121 46 3 78 18 79 63 0 33-17 51-44 57zm-34-11c31 1 46-15 46-44 0-28-17-43-47-42-29 0-46 13-45 42 1 28 16 44 46 44zm1 122c35 0 51-18 51-52 0-30-18-46-53-46-33 0-51 17-51 47 0 34 19 51 53 51"
         id="ag" />
      <path
         d="M64 0c3-98 48-159 88-221H18v-27h164v26C143-157 98-101 97 0H64"
         id="ah" />
      <g
         id="n">
        <use
           transform="matrix(0.05,0,0,0.05,0,0)"
           xlink:href="#ad"
           id="use1924" />
        <use
           transform="matrix(0.05,0,0,0.05,10,0)"
           xlink:href="#ag"
           id="use1926" />
        <use
           transform="matrix(0.05,0,0,0.05,20,0)"
           xlink:href="#ab"
           id="use1928" />
        <use
           transform="matrix(0.05,0,0,0.05,23.4,0)"
           xlink:href="#ah"
           id="use1930" />
        <use
           transform="matrix(0.05,0,0,0.05,33.4,0)"
           xlink:href="#ae"
           id="use1932" />
      </g>
      <g
         id="o">
        <use
           transform="matrix(0.05,0,0,0.05,0,0)"
           xlink:href="#ad"
           id="use1935" />
        <use
           transform="matrix(0.05,0,0,0.05,10,0)"
           xlink:href="#ah"
           id="use1937" />
        <use
           transform="matrix(0.05,0,0,0.05,20,0)"
           xlink:href="#ab"
           id="use1939" />
      </g>
      <path
         d="M185-189c-5-48-123-54-124 2 14 75 158 14 163 119 3 78-121 87-175 55-17-10-28-26-33-46l33-7c5 56 141 63 141-1 0-78-155-14-162-118-5-82 145-84 179-34 5 7 8 16 11 25"
         id="ai" />
      <path
         d="M96-169c-40 0-48 33-48 73s9 75 48 75c24 0 41-14 43-38l32 2c-6 37-31 61-74 61-59 0-76-41-82-99-10-93 101-131 147-64 4 7 5 14 7 22l-32 3c-4-21-16-35-41-35"
         id="aj" />
      <path
         d="M141-36C126-15 110 5 73 4 37 3 15-17 15-53c-1-64 63-63 125-63 3-35-9-54-41-54-24 1-41 7-42 31l-33-3c5-37 33-52 76-52 45 0 72 20 72 64v82c-1 20 7 32 28 27v20c-31 9-61-2-59-35zM48-53c0 20 12 33 32 33 41-3 63-29 60-74-43 2-92-5-92 41"
         id="ak" />
      <path
         d="M24 0v-261h32V0H24"
         id="al" />
      <path
         d="M100-194c63 0 86 42 84 106H49c0 40 14 67 53 68 26 1 43-12 49-29l28 8c-11 28-37 45-77 45C44 4 14-33 15-96c1-61 26-98 85-98zm52 81c6-60-76-77-97-28-3 7-6 17-6 28h103"
         id="am" />
      <g
         id="p">
        <use
           transform="matrix(0.05,0,0,0.05,0,0)"
           xlink:href="#ai"
           id="use1947" />
        <use
           transform="matrix(0.05,0,0,0.05,12,0)"
           xlink:href="#aj"
           id="use1949" />
        <use
           transform="matrix(0.05,0,0,0.05,21,0)"
           xlink:href="#ak"
           id="use1951" />
        <use
           transform="matrix(0.05,0,0,0.05,31,0)"
           xlink:href="#al"
           id="use1953" />
        <use
           transform="matrix(0.05,0,0,0.05,34.95,0)"
           xlink:href="#am"
           id="use1955" />
      </g>
      <path
         d="M33-154v-36h34v36H33zM33 0v-36h34V0H33"
         id="an" />
      <path
         d="M110-160c48 1 74 30 74 79 0 53-28 85-80 85-65 0-83-55-86-122-5-90 50-162 133-122 14 7 22 21 27 39l-31 6c-5-40-67-38-82-6-9 19-15 44-15 74 11-20 30-34 60-33zm-7 138c34 0 49-23 49-58s-16-56-50-56c-29 0-50 16-49 49 1 36 15 65 50 65"
         id="ao" />
      <g
         id="q">
        <use
           transform="matrix(0.05,0,0,0.05,0,0)"
           xlink:href="#ad"
           id="use1960" />
        <use
           transform="matrix(0.05,0,0,0.05,10,0)"
           xlink:href="#an"
           id="use1962" />
        <use
           transform="matrix(0.05,0,0,0.05,15,0)"
           xlink:href="#ao"
           id="use1964" />
        <use
           transform="matrix(0.05,0,0,0.05,25,0)"
           xlink:href="#af"
           id="use1966" />
      </g>
      <g
         id="r">
        <use
           transform="matrix(0.05,0,0,0.05,0,0)"
           xlink:href="#af"
           id="use1969" />
        <use
           transform="matrix(0.05,0,0,0.05,10,0)"
           xlink:href="#ab"
           id="use1971" />
      </g>
      <g
         id="s">
        <use
           transform="matrix(0.05,0,0,0.05,0,0)"
           xlink:href="#ag"
           id="use1974" />
        <use
           transform="matrix(0.05,0,0,0.05,10,0)"
           xlink:href="#ab"
           id="use1976" />
      </g>
      <g
         id="t">
        <use
           transform="matrix(0.05,0,0,0.05,0,0)"
           xlink:href="#ad"
           id="use1979" />
        <use
           transform="matrix(0.05,0,0,0.05,10,0)"
           xlink:href="#aa"
           id="use1981" />
        <use
           transform="matrix(0.05,0,0,0.05,20,0)"
           xlink:href="#ab"
           id="use1983" />
      </g>
      <g
         id="u">
        <use
           transform="matrix(0.05,0,0,0.05,0,0)"
           xlink:href="#ad"
           id="use1986" />
        <use
           transform="matrix(0.05,0,0,0.05,10,0)"
           xlink:href="#ao"
           id="use1988" />
        <use
           transform="matrix(0.05,0,0,0.05,20,0)"
           xlink:href="#ab"
           id="use1990" />
      </g>
    </defs>
  </g>
  <rect
     style="fill:#00ba00;fill-opacity:0.28140703;stroke:#006700;stroke-width:2.90206838;stroke-miterlimit:4;stroke-dasharray:none;stroke-opacity:1"
     id="rect5708"
     width="150.108"
     height="149.28323"
     x="1305.7174"
     y="505.8725"
     ry="3.2809503" />
  <text
     xml:space="preserve"
     style="font-style:normal;font-weight:normal;font-size:25.06907082px;line-height:1.25;font-family:sans-serif;letter-spacing:0px;word-spacing:0px;fill:#000000;fill-opacity:1;stroke:none;stroke-width:0.62672675"
     x="1560.1077"
     y="469.46234"
     id="text5712"
     transform="scale(0.85493337,1.1696818)"><tspan
       sodipodi:role="line"
       id="tspan5710"
       x="1560.1077"
       y="469.46234"
       style="stroke-width:0.62672675">ethernet?</tspan></text>
</svg>
